HIERARCHY
ROOT Hips
{
	OFFSET 0.000000 0.000000 0.000000
	CHANNELS 6 Xposition Yposition Zposition Zrotation Yrotation Xrotation 
	JOINT LHipJoint
	{
		OFFSET 0.000000 0.000000 0.000000
		CHANNELS 3 Zrotation Yrotation Xrotation
		JOINT LeftUpLeg
		{
			OFFSET 1.363060 -1.794630 0.839290
			CHANNELS 3 Zrotation Yrotation Xrotation
			JOINT LeftLeg
			{
				OFFSET 2.448110 -6.726130 0.000000
				CHANNELS 3 Zrotation Yrotation Xrotation
				JOINT LeftFoot
				{
					OFFSET 2.562200 -7.039590 0.000000
					CHANNELS 3 Zrotation Yrotation Xrotation
					JOINT LeftToeBase
					{
						OFFSET 0.157640 -0.433110 2.322550
						CHANNELS 3 Zrotation Yrotation Xrotation
						End Site
						{
							OFFSET 0.000000 0.000000 0.000000
						}
					}
				}
			}
		}
	}
	JOINT RHipJoint
	{
		OFFSET 0.000000 0.000000 0.000000
		CHANNELS 3 Zrotation Yrotation Xrotation
		JOINT RightUpLeg
		{
			OFFSET -1.305520 -1.794630 0.839290
			CHANNELS 3 Zrotation Yrotation Xrotation
			JOINT RightLeg
			{
				OFFSET -2.542530 -6.985550 0.000000
				CHANNELS 3 Zrotation Yrotation Xrotation
				JOINT RightFoot
				{
					OFFSET -2.568260 -7.056230 0.000000
					CHANNELS 3 Zrotation Yrotation Xrotation
					JOINT RightToeBase
					{
						OFFSET -0.164730 -0.452590 2.363150
						CHANNELS 3 Zrotation Yrotation Xrotation
						End Site
						{
							OFFSET 0.000000 0.000000 0.000000
						}
					}
				}
			}
		}
	}
	JOINT LowerBack
	{
		OFFSET 0.000000 0.000000 0.000000
		CHANNELS 3 Zrotation Yrotation Xrotation
		JOINT Spine
		{
			OFFSET 0.028270 2.035590 -0.193380
			CHANNELS 3 Zrotation Yrotation Xrotation
			JOINT Spine1
			{
				OFFSET 0.056720 2.048850 -0.042750
				CHANNELS 3 Zrotation Yrotation Xrotation
				JOINT Neck
				{
					OFFSET 0.000000 0.000000 0.000000
					CHANNELS 3 Zrotation Yrotation Xrotation
					JOINT Neck1
					{
						OFFSET -0.054170 1.746240 0.172020
						CHANNELS 3 Zrotation Yrotation Xrotation
						JOINT Head
						{
							OFFSET 0.104070 1.761360 -0.123970
							CHANNELS 3 Zrotation Yrotation Xrotation
							End Site
							{
								OFFSET 0.000000 0.000000 0.000000
							}
						}
					}
				}
				JOINT LeftShoulder
				{
					OFFSET 0.000000 0.000000 0.000000
					CHANNELS 3 Zrotation Yrotation Xrotation
					JOINT LeftArm
					{
						OFFSET 3.362410 1.200890 -0.311210
						CHANNELS 3 Zrotation Yrotation Xrotation
						JOINT LeftForeArm
						{
							OFFSET 4.983000 -0.000000 -0.000000
							CHANNELS 3 Zrotation Yrotation Xrotation
							JOINT LeftHand
							{
								OFFSET 3.483560 -0.000000 -0.000000
								CHANNELS 3 Zrotation Yrotation Xrotation
								JOINT LeftFingerBase
								{
									OFFSET 0.000000 0.000000 0.000000
									CHANNELS 3 Zrotation Yrotation Xrotation
									JOINT LeftHandIndex1
									{
										OFFSET 0.715260 -0.000000 -0.000000
										CHANNELS 3 Zrotation Yrotation Xrotation
										End Site
										{
											OFFSET 0.000000 0.000000 0.000000
										}
									}
								}
								JOINT LThumb
								{
									OFFSET 0.000000 0.000000 0.000000
									CHANNELS 3 Zrotation Yrotation Xrotation
									End Site
									{
										OFFSET 0.000000 0.000000 0.000000
									}
								}
							}
						}
					}
				}
				JOINT RightShoulder
				{
					OFFSET 0.000000 0.000000 0.000000
					CHANNELS 3 Zrotation Yrotation Xrotation
					JOINT RightArm
					{
						OFFSET -3.136600 1.374050 -0.404650
						CHANNELS 3 Zrotation Yrotation Xrotation
						JOINT RightForeArm
						{
							OFFSET -5.241900 -0.000000 -0.000000
							CHANNELS 3 Zrotation Yrotation Xrotation
							JOINT RightHand
							{
								OFFSET -3.444170 -0.000000 -0.000000
								CHANNELS 3 Zrotation Yrotation Xrotation
								JOINT RightFingerBase
								{
									OFFSET 0.000000 0.000000 0.000000
									CHANNELS 3 Zrotation Yrotation Xrotation
									JOINT RightHandIndex1
									{
										OFFSET -0.622530 -0.000000 -0.000000
										CHANNELS 3 Zrotation Yrotation Xrotation
										End Site
										{
											OFFSET 0.000000 0.000000 0.000000
										}
									}
								}
								JOINT RThumb
								{
									OFFSET 0.000000 0.000000 0.000000
									CHANNELS 3 Zrotation Yrotation Xrotation
									End Site
									{
										OFFSET 0.000000 0.000000 0.000000
									}
								}
							}
						}
					}
				}
			}
		}
	}
}
MOTION
Frames: 10
Frame Time: 0.008333
9.191709 16.016117 4.058805 13.736692 54.522115 35.980642 -8.571679 0.825560 0.243678 -9.711377 -5.375301 -33.714319 -2.277917 1.574465 42.432636 1.954284 6.298551 -22.666155 -2.181800 0.000001 -53.798999 13.855240 1.356341 -1.212858 -1.521142 3.227719 -45.888507 -5.096770 -6.605111 99.856189 -1.552988 -7.809895 -16.198975 0.932600 0.000001 -39.063900 -3.580176 -0.676231 3.814912 -0.877416 -0.330384 -2.011117 -3.785980 -0.305975 0.112057 5.587413 -8.354927 -3.623638 -3.052023 -0.262655 0.885356 0.000000 0.000000 0.000000 0.428946 8.027820 -1.896663 -73.309557 -23.587418 10.261353 -179.118417 -78.251105 179.907723 10.687001 -5.024927 -0.548043 -0.326835 0.690854 -0.000000 0.000000 0.000000 0.000000 0.000000 0.000000 0.000000 7.370460 -5.937714 0.753959 66.067408 -18.308669 22.726080 1.044689 65.237677 0.000130 -5.111162 13.791933 -0.636518 0.072932 -0.223794 -0.000000 0.000000 0.000000 0.000000 0.000000 0.000000 0.000000 
9.381859 16.116816 4.198914 13.037116 54.312262 35.377934 -8.692886 0.906520 0.228794 -9.156117 -5.262961 -31.725372 -2.260607 1.430110 40.413376 1.878048 6.408631 -21.394973 -2.011700 0.000000 -55.454500 13.503417 1.684405 -1.079793 -0.971396 3.442412 -47.740748 -4.700258 -6.426526 97.584458 -1.628855 -8.066184 -16.220914 0.971600 -0.000000 -38.467900 -2.851151 -1.118086 3.828542 -0.681177 -0.821824 -1.986852 -3.570380 -0.806605 0.156094 5.128141 -8.872144 -3.531635 -2.989464 -0.260346 0.919078 0.000000 0.000000 0.000000 1.384238 7.618119 -1.982215 -72.133999 -24.295354 8.640362 -179.005884 -76.135641 179.907480 10.273701 -4.977174 -0.524656 -0.318841 0.714098 -0.000000 0.000000 0.000000 0.000000 0.000000 0.000000 0.000000 6.527569 -6.760306 0.669593 64.164765 -19.443834 24.334022 0.954302 67.524381 0.000573 -4.457570 13.711298 -0.551847 0.064777 -0.222939 -0.000000 0.000000 0.000000 0.000000 0.000000 0.000000 0.000000 
9.572509 16.226638 4.346587 12.349810 54.106414 34.863664 -8.818949 0.998406 0.224891 -8.595955 -5.098442 -29.859556 -2.228286 1.294384 38.301260 1.759637 6.374097 -19.695344 -1.745001 0.000000 -57.619900 13.128685 1.985573 -0.914657 -0.423783 3.687944 -49.523405 -4.271718 -6.223441 94.886401 -1.714756 -8.335495 -16.102898 0.990800 -0.000001 -38.039400 -2.122338 -1.556863 3.784880 -0.490887 -1.312463 -1.975252 -3.390901 -1.307293 0.218173 4.716951 -9.386000 -3.489715 -2.935382 -0.258078 0.938432 0.000000 0.000000 0.000000 2.186371 7.319353 -2.026925 -70.636303 -24.853822 6.962933 -178.894060 -74.064342 179.907837 9.884858 -4.873583 -0.497251 -0.312371 0.733177 -0.000000 0.000000 0.000000 0.000000 0.000000 0.000000 0.000000 5.782306 -7.560024 0.570411 62.341891 -20.383497 25.627480 0.866750 69.689848 0.000835 -3.874059 13.578332 -0.474877 0.057319 -0.222553 -0.000000 0.000000 0.000000 0.000000 0.000000 0.000000 0.000000 
9.763323 16.344586 4.501638 11.677134 53.898406 34.429846 -8.950397 1.101099 0.222023 -8.039222 -4.847074 -28.115400 -2.182182 1.169706 36.105372 1.604370 6.198858 -17.560508 -1.397899 0.000000 -60.144501 12.737610 2.251757 -0.718184 0.102322 3.969550 -51.197135 -3.819854 -5.997073 91.742914 -1.805331 -8.584398 -15.833706 0.980800 0.000000 -37.897200 -1.405307 -1.978233 3.694114 -0.309554 -1.786217 -1.973515 -3.251306 -1.791096 0.298548 4.365632 -9.916549 -3.500206 -2.888894 -0.255734 0.942736 0.000000 0.000000 0.000000 2.842224 7.114618 -2.036380 -68.898157 -25.279652 5.289048 -178.787216 -72.106236 179.908658 9.531975 -4.750859 -0.470332 -0.307481 0.748712 -0.000000 0.000000 0.000000 0.000000 0.000000 0.000000 0.000000 5.146633 -8.350371 0.462550 60.634963 -21.157391 26.589857 0.784646 71.707342 0.001025 -3.375675 13.406741 -0.408605 0.051022 -0.222531 -0.000000 0.000000 0.000000 0.000000 0.000000 0.000000 0.000000 
9.954188 16.469279 4.663627 11.013145 53.681933 34.059962 -9.087996 1.213604 0.211292 -7.489064 -4.482312 -26.482170 -2.123752 1.058090 33.834895 1.423281 5.904183 -15.010201 -0.999600 0.000000 -62.816900 12.336439 2.474808 -0.492114 0.596374 4.294262 -52.718546 -3.352554 -5.748098 88.138577 -1.895028 -8.780744 -15.420355 0.935401 0.000000 -38.123000 -0.708904 -2.369257 3.567207 -0.138494 -2.228673 -1.979846 -3.148640 -2.243107 0.392201 4.077397 -10.475608 -3.558697 -2.847750 -0.253197 0.933275 0.000000 0.000000 0.000000 3.383269 6.973561 -2.021589 -67.026415 -25.562569 3.667036 -178.691461 -70.304081 179.909730 9.222732 -4.638771 -0.446904 -0.303755 0.761443 0.000000 0.000000 0.000000 0.000000 0.000000 0.000000 0.000000 4.614359 -9.136491 0.353516 59.075531 -21.806024 27.221540 0.709459 73.565896 0.001229 -2.962499 13.213764 -0.353527 0.046120 -0.222827 -0.000000 0.000000 0.000000 0.000000 0.000000 0.000000 0.000000 
10.145227 16.598909 4.831862 10.344926 53.449100 33.731696 -9.233032 1.334029 0.185997 -6.943087 -3.988798 -24.945743 -2.054563 0.961446 31.505267 1.232117 5.526834 -12.092866 -0.586600 -0.000000 -65.395800 11.929966 2.647458 -0.238355 1.057647 4.671668 -54.046452 -2.876641 -5.476229 84.062668 -1.978115 -8.893792 -14.884188 0.852300 -0.000000 -38.754300 -0.036062 -2.720282 3.414170 0.022707 -2.629280 -1.991111 -3.077111 -2.652476 0.499835 3.848638 -11.078224 -3.664567 -2.807672 -0.250152 0.910234 0.000000 0.000000 0.000000 3.839563 6.898715 -1.994634 -65.129939 -25.725422 2.164246 -178.612509 -68.697810 179.910838 8.965063 -4.552946 -0.428375 -0.300936 0.771946 0.000000 0.000000 0.000000 0.000000 0.000000 0.000000 0.000000 4.166547 -9.927502 0.247687 57.684591 -22.355935 27.549276 0.641273 75.266497 0.001490 -2.626604 13.015076 -0.308844 0.042642 -0.223459 -0.000000 0.000000 0.000000 0.000000 0.000000 0.000000 0.000000 
10.336648 16.731261 5.005499 9.656080 53.194038 33.419853 -9.386420 1.459676 0.141667 -6.395834 -3.364383 -23.491974 -1.976111 0.881432 29.144722 1.049329 5.115441 -8.886560 -0.194800 0.000000 -67.641300 11.521936 2.763328 0.041497 1.491907 5.112817 -55.144171 -2.397851 -5.180600 79.511389 -2.048421 -8.894216 -14.253879 0.733700 0.000000 -39.785600 0.613248 -3.024609 3.242844 0.176443 -2.980856 -2.007721 -3.023942 -3.012178 0.611708 3.664980 -11.718835 -3.805684 -2.764168 -0.246427 0.877132 0.000000 0.000000 0.000000 4.264349 6.855481 -1.969321 -63.326381 -25.732521 0.811886 -178.556567 -67.281931 179.911790 8.758712 -4.498904 -0.415052 -0.298265 0.780698 -0.000000 0.000000 0.000000 0.000000 0.000000 0.000000 0.000000 3.763852 -10.711941 0.152489 56.485477 -22.854410 27.596327 0.579507 76.821667 0.001833 -2.345178 12.824314 -0.271855 0.040305 -0.224481 -0.000000 0.000000 0.000000 0.000000 0.000000 0.000000 0.000000 
10.528878 16.863795 5.183691 8.931430 52.911321 33.103501 -9.548703 1.587475 0.076466 -5.841176 -2.620749 -22.111761 -1.890071 0.819442 26.798484 0.893086 4.724792 -5.498210 0.148700 0.000000 -69.337700 11.114452 2.817758 0.346990 1.908753 5.628818 -55.984814 -1.920243 -4.859044 74.485947 -2.099198 -8.755428 -13.555398 0.584100 0.000000 -41.169400 1.244059 -3.279835 3.058172 0.326212 -3.281034 -2.029200 -2.976719 -3.320091 0.724783 3.508010 -12.393241 -3.974981 -2.711765 -0.241700 0.835984 0.000000 0.000000 0.000000 4.694504 6.841740 -1.955373 -61.710599 -25.583803 -0.347737 -178.526871 -66.052488 179.912465 8.602742 -4.470274 -0.405940 -0.295382 0.787859 -0.000000 0.000000 0.000000 0.000000 0.000000 0.000000 0.000000 3.361667 -11.481502 0.071494 55.493433 -23.332645 27.400676 0.522777 78.249369 0.002244 -2.095227 12.648797 -0.239862 0.038698 -0.225969 -0.000000 0.000000 0.000000 0.000000 0.000000 0.000000 0.000000 
10.722237 16.993732 5.365608 8.162555 52.598365 32.768762 -9.718969 1.714081 -0.009951 -5.275041 -1.780570 -20.802520 -1.798319 0.776295 24.529960 0.778160 4.410514 -2.058776 0.432700 -0.000000 -70.306200 10.709330 2.807878 0.679422 2.315713 6.228146 -56.551651 -1.445766 -4.507819 68.991164 -2.123016 -8.457368 -12.798992 0.409400 -0.000001 -42.817800 1.861368 -3.486860 2.862046 0.475752 -3.530934 -2.056815 -2.922358 -3.577742 0.833079 3.355883 -13.085966 -4.161468 -2.645775 -0.235752 0.789915 0.000000 0.000000 0.000000 5.164874 6.844562 -1.959341 -60.356461 -25.263582 -1.293900 -178.524270 -64.981847 179.912815 8.489576 -4.454136 -0.399744 -0.291871 0.793439 -0.000000 0.000000 0.000000 0.000000 0.000000 0.000000 0.000000 2.911589 -12.217911 0.007954 54.722411 -23.829020 26.996139 0.469449 79.573150 0.002689 -1.850895 12.490646 -0.209471 0.037277 -0.227994 -0.000000 0.000000 0.000000 0.000000 0.000000 0.000000 0.000000 
10.916854 17.118283 5.550662 7.353616 52.254498 32.414204 -9.894129 1.836429 -0.117535 -4.699989 -0.874968 -19.567124 -1.703158 0.752071 22.416832 0.713423 4.223856 1.285982 0.663800 -0.000000 -70.414300 10.309733 2.733430 1.041901 2.712599 6.912138 -56.837343 -0.973589 -4.120503 63.032202 -2.111861 -7.992225 -11.968396 0.214400 0.000001 -44.605600 2.466626 -3.649959 2.654720 0.627637 -3.734982 -2.091937 -2.850490 -3.789941 0.931953 3.188978 -13.778778 -4.354821 -2.562664 -0.228429 0.741805 0.000000 0.000000 0.000000 5.698185 6.854279 -1.983501 -59.304678 -24.762901 -2.017977 -178.547477 -64.037970 179.912873 8.408817 -4.436263 -0.394761 -0.287441 0.797356 -0.000000 0.000000 0.000000 0.000000 0.000000 0.000000 0.000000 2.372779 -12.902480 -0.036870 54.181958 -24.378045 26.414735 0.417884 80.818160 0.003133 -1.589635 12.347220 -0.178182 0.035482 -0.230593 -0.000000 0.000000 0.000000 0.000000 0.000000 0.000000 0.000000 
